# xmcd CD database file
# Copyright (C) 1993-1998 Ti Kan
#
# Track frame offsets:
#	150
#	13814
#	31004
#	47553
#	62632
#	77108
#	91800
#	106598
#	121937
#	149572
#	164793
#	176221
#	198792
#	219833
#
# Disc length: 3211 seconds
#
# Revision: 1
# Processed by: cddbd v1.4b41PL1 Copyright (c) Steve Scherf et al.
# Submitted via: CDValet v3.31 - Copyright (c) 1997 Greg Leichner
#
DISCID=b60c890e
DTITLE=Jordan Cook - Time
DYEAR=1900
DGENRE=
TTITLE0=Goodbye
TTITLE1=Everything's Gonna Be All Right
TTITLE2=Walking Blues
TTITLE3=Walking By Myself
TTITLE4=Cakewalk Into Town
TTITLE5=Don't Go No Further
TTITLE6=Time
TTITLE7=Going Down
TTITLE8=Suffer
TTITLE9=Get A Little Closer
TTITLE10=Going Down Slow
TTITLE11=Atlanto Moon
TTITLE12=Not Fade Away
TTITLE13=Pipeline
EXTD=
EXTT0=
EXTT1=
EXTT2=
EXTT3=
EXTT4=
EXTT5=
EXTT6=
EXTT7=
EXTT8=
EXTT9=
EXTT10=
EXTT11=
EXTT12=
EXTT13=
PLAYORDER=
